
<?xml version="1.0" encoding="UTF-8" standalone="no"?>
<svg width="296" height="918" viewBox="0 0 296 918" fill="none" xmlns="http://www.w3.org/2000/svg">
<g id="left_foot_sensorss">
<path id="R_56" d="M204.955 307.5L193.691 355.5H226.171L238.416 307.5H204.955Z" stroke="black"/>
<path id="R_57" d="M163.985 307.5L156.148 355.991L189.658 355.505L200.435 307.5H163.985Z" stroke="black"/>
<path id="R_58" d="M127.521 307.5L123.602 356H152.134L159.973 307.5H127.521Z" stroke="black"/>
<path id="R_59" d="M89.5303 307.5L86.5918 356.983L119.093 356.012L122.523 307.5H89.5303Z" stroke="black"/>
<path id="R_60" d="M51.5095 307.497L46.1179 357.492L81.7937 357.003L85.7146 307.497H51.5095Z" stroke="black"/>
<path id="R_61" d="M9.55495 307.5L9.06569 357.992L43.093 357.506L46.5237 307.5H9.55495Z" stroke="black"/>
<path id="R_55" d="M243.445 307.5L230.71 355.5H262.675L275.409 307.5H243.445Z" stroke="black"/>
<path id="R_63" d="M211.988 256.5L204.647 302.5H240.148L248.957 256.5H211.988Z" stroke="black"/>
<path id="R_64" d="M172.986 258.477L165.16 303.974L200.64 302.516L208.956 256.532L172.986 258.477Z" stroke="black"/>
<path id="R_65" d="M133.488 259.488L126.151 304.491L161.635 304.005L168.971 258.516L133.488 259.488Z" stroke="black"/>
<path id="R_66" d="M90.715 259.5L89.5724 304.5H122.636L130.138 259.5H90.715Z" stroke="black"/>
<path id="R_67" d="M52.0544 260.5L51.5661 304.992L85.5622 304.507L85.7536 260.5H52.0544Z" stroke="black"/>
<path id="v68" d="M10.5504 260.5L9.57088 305.49L47.0719 305.006L48.0504 260.5H10.5504Z" stroke="black"/>
<path id="R_62" d="M252.978 256.484L244.165 302.5H276.666L287.922 255.027L252.978 256.484Z" stroke="black"/>
<path id="R_70" d="M219.497 206.5L213.134 252.5H249.134L256.474 206.5H219.497Z" stroke="black"/>
<path id="R_71" d="M177.517 206.5L173.112 253.977L209.128 252.518L215.982 206.5H177.517Z" stroke="black"/>
<path id="R_72" d="M138.028 207.982L134.601 254.984L169.6 254.012L173.517 206.523L138.028 207.982Z" stroke="black"/>
<path id="R_73" d="M98.9838 209.483L90.8266 255.982L131.095 255.011L134.522 208.023L98.9838 209.483Z" stroke="black"/>
<path id="R_74" d="M59.9838 209.5L52.1518 255.997H87.143L95.4633 209.5H59.9838Z" stroke="black"/>
<path id="R_75" d="M20.0064 209.5L14.5523 232.598L10.649 256.5H48.1421L56.4654 209.5H20.0064Z" stroke="black"/>
<path id="R_69" d="M260.986 206.487L253.154 252.5H288.125L294.487 205.517L260.986 206.487Z" stroke="black"/>
<path id="R_77" d="M223.959 156.5L221.558 167.068L221.061 178.521V178.522L221.06 178.532L219.595 201H256.561V156.5H223.959Z" stroke="black"/>
<path id="R_78" d="M184.484 156.988L182.553 168.086L180.557 179.564L177.633 202.409L216.102 200.522L220.014 156.015L184.484 156.988Z" stroke="black"/>
<path id="R_79" d="M145.488 157L138.15 203.483L174.249 202.45L180.61 157H145.488Z" stroke="black"/>
<path id="R_80" d="M108.468 159.98L103.552 182.593V182.594L99.1654 205.5H134.628L141.479 158.526L108.468 159.98Z" stroke="black"/>
<path id="R_81" d="M72.9238 159.997L65.5458 182.624L60.1884 206H97.1405L105.162 159.997H72.9238Z" stroke="black"/>
<path id="R_82" d="M33.912 159.5L25.5399 182.648L19.701 206H57.1747L69.2616 159.5H33.912Z" stroke="black"/>
<path id="R_76" d="M260.061 156.492V201.992L294.55 201.507L293.572 156.007L260.061 156.492Z" stroke="black"/>
<path id="R_84" d="M223.061 105V152.5H256.561V105H223.061Z" stroke="black"/>
<path id="R_85" d="M188.522 106.492L184.606 153.485L220.061 152.513V106.008L188.522 106.492Z" stroke="black"/>
<path id="R_86" d="M171.336 107.249L156.96 107.98L145.7 154.49L180.732 154.006L185.506 106.528L171.336 107.249Z" stroke="black"/>
<path id="R_87" d="M122.439 108.983L108.733 155.489L141.665 155.005L152.922 108.021L122.439 108.983Z" stroke="black"/>
<path id="R_88" d="M87.432 108.995L73.2338 156H105.384L119.39 108.995H87.432Z" stroke="black"/>
<path id="R_89" d="M57.3735 109.5L46.0102 132.72L35.8257 156H70.6792L83.4057 109.5H57.3735Z" stroke="black"/>
<path id="R_83" d="M259.072 105L260.051 152.5H293.495L292.068 141.082L290.068 129.082L288.072 117.101L285.167 105H259.072Z" stroke="black"/>
<path id="R_48" d="M226.938 358L210.72 416H236.727L260.812 358H226.938Z" stroke="black"/>
<path id="R_50" d="M155.955 359L142.199 416.98L175.655 416.011L187.941 359H155.955Z" stroke="black"/>
<path id="R_52" d="M85.9891 360L76.6473 419H107.644L118.461 360H85.9891Z" stroke="black"/>
<path id="R_53" d="M46.0241 360.993L41.6013 419H72.6316L81.4792 360.508L46.0241 360.993Z" stroke="black"/>
<path id="R_54" d="M8.05049 361L7.07002 418.508L38.0983 418.992L42.5212 361H8.05049Z" stroke="black"/>
<path id="R_47" d="M6.54846 421.5L5.07385 480H36.569L37.5524 421.5H6.54846Z" stroke="black"/>
<path id="R_90" d="M242.177 57L251.466 101H283.467L281.575 90.1191L278.081 78.1396L278.082 78.1386L274.582 66.6455L271.207 57L242.177 57Z" stroke="black"/>
<path id="R_91" d="M213.544 57.7031L211.956 101.985L247.461 101.016L239.149 57.0107L213.544 57.7031Z" stroke="black"/>
<path id="R_92" d="M181.642 57.9948L177.61 102.983L209.081 102.014L210.916 57.7204L181.642 57.9948Z" stroke="black"/>
<path id="R_93" d="M146.488 58.0001L139.151 103.984L174.606 103.012L179.009 58.0001L146.488 58.0001Z" stroke="black"/>
<path id="R_94" d="M115.438 59.5L102.724 104H135.141L142.965 59.5H115.438Z" stroke="black"/>
<path id="R_95" d="M92.3207 59.5L76.9701 81.2881L60.517 105H98.6928L112.881 59.5H92.3207Z" stroke="black"/>
<path id="R_99" d="M137.294 16.9424L126.347 23.4111L118.398 29.8701L111.914 36.3535L105.455 43.3105L96.0346 56.7012L143.173 56.0049L155.796 7.4541L137.294 16.9424Z" stroke="black"/>
<path id="R_98" d="M181.22 1L173.654 1.99219L165.735 3.97168L159.994 6.84277L148.197 55.5L178.647 55.5L188.957 1L181.22 1Z" stroke="black"/>
<path id="R_97" d="M199.582 0.5L192.976 0.97168L181.797 55.5L211.019 55.5L220.484 2.8877L213.975 1.49219L209.998 0.996094L209.991 0.995117L206.525 0.5L199.582 0.5Z" stroke="black"/>
<path id="R_96" d="M213.165 55.5L269.207 55.5L260.651 40.2881L249.679 27.3232L249.68 27.3223L244.691 21.8359L244.692 21.835L239.226 15.875L222.908 4.35547L213.165 55.5Z" stroke="black"/>
<path id="R_51" d="M122.471 360L110.673 418.5H138.165L151.929 360H122.471Z" stroke="black"/>
<path id="R_49" d="M191.96 359L179.184 416H207.684L223.9 359H191.96Z" stroke="black"/>
<path id="R_40" d="M5.04944 482L3.57288 546H36.0651L36.5573 482H5.04944Z" stroke="black"/>
<path id="R_46" d="M41.5486 421.5L40.0739 480H70.5779L72.5437 421.5H41.5486Z" stroke="black"/>
<path id="R_39" d="M39.5534 482L38.569 546H68.5612L68.5612 482H39.5534Z" stroke="black"/>
<path id="R_45" d="M75.5486 421.5L74.074 480H104.578L106.544 421.5H75.5486Z" stroke="black"/>
<path id="R_38" d="M72.5533 482L71.569 546H101.061L101.061 482H72.5533Z" stroke="black"/>
<path id="R_44" d="M110.536 421.5L107.589 478.481L136.574 477.516L138.048 421.5H110.536Z" stroke="black"/>
<path id="R_43" d="M142.049 421.478L140.576 477.475L171.087 476.022L174.034 420.023L142.049 421.478Z" stroke="black"/>
<path id="R_42" d="M176.541 419.991L174.084 476H202.091L205.53 419.509L176.541 419.991Z" stroke="black"/>
<path id="R_41" d="M208.532 419L205.092 476H233.591L237.03 419H208.532Z" stroke="black"/>
<path id="R_37" d="M106.547 480.992L104.577 545H133.091L137.03 480.508L106.547 480.992Z" stroke="black"/>
<path id="R_36" d="M140.53 480.485L136.098 544.99L164.107 544.507L170.508 479.518L140.53 480.485Z" stroke="black"/>
<path id="R_35" d="M173.019 479.492L167.11 544.49L197.597 544.007L202.521 479.009L173.019 479.492Z" stroke="black"/>
<path id="R_34" d="M206.522 479.491L201.106 543.99L231.08 543.507L233.542 479.009L206.522 479.491Z" stroke="black"/>
<path id="R_33" d="M3.54944 549.5L2.07288 613.5H34.5651L35.0573 549.5H3.54944Z" stroke="black"/>
<path id="R_32" d="M38.5534 549.5L37.569 613.5H67.5612L67.5612 549.5H38.5534Z" stroke="black"/>
<path id="R_31" d="M71.0534 548.5L70.069 612.5H99.5612L99.5612 548.5H71.0534Z" stroke="black"/>
<path id="R_30" d="M103.557 548L103.065 611.5H129.08L131.541 548H103.557Z" stroke="black"/>
<path id="R_29" d="M136.032 547L132.093 611.49L159.594 611.008L164.025 547H136.032Z" stroke="black"/>
<path id="R_28" d="M167.028 547L162.598 610.991L193.094 610.507L197.525 547H167.028Z" stroke="black"/>
<path id="R_27" d="M227.061 594.484L228.062 578.469L228.063 578.455L229.563 561.955L229.564 561.939L229.567 561.925L231.979 546.009L201.525 546.492L196.6 610.5H227.061V594.484Z" stroke="black"/>
<path id="R_26" d="M2.05042 616L0.572876 683H32.0719L33.5494 616H2.05042Z" stroke="black"/>
<path id="R_25" d="M36.0505 616L34.5729 683H61.1003L66.5192 616H36.0505Z" stroke="black"/>
<path id="R_24" d="M69.5231 615.992L64.1052 681.99L94.1042 681.507L100.014 615.509L69.5231 615.992Z" stroke="black"/>
<path id="R_23" d="M102.522 614.5L97.1032 681.5H127.076L129.046 614.5H102.522Z" stroke="black"/>
<path id="R_22" d="M132.051 614.483L130.573 680H158.568L159.554 613.518L132.051 614.483Z" stroke="black"/>
<path id="R_21" d="M163.05 613.5L161.573 680H189.093L193.527 613.5H163.05Z" stroke="black"/>
<path id="R_20" d="M197.518 612.5L191.609 678.99L221.6 678.507L227.019 612.5H197.518Z" stroke="black"/>
<path id="R_19" d="M0.514648 685L2.48633 755H30.5713L31.9893 685H0.514648Z" stroke="black"/>
<path id="R_18" d="M34.5544 685L33.5681 755H63.0466L61.0749 685H34.5544Z" stroke="black"/>
<path id="R_17" d="M63.9743 684L65.5505 754.5H94.0681L95.0544 684H63.9743Z" stroke="black"/>
<path id="R_16" d="M97.0651 754.5H127.061L127.061 683.735L97.5583 683.504L97.0651 754.5Z" stroke="black"/>
<path id="R_15" d="M130.057 682.5L129.565 753.989L154.094 753.509L159.025 682.5H130.057Z" stroke="black"/>
<path id="R_14" d="M161.528 682L156.598 753.49L183.597 753.008L189.021 682H161.528Z" stroke="black"/>
<path id="R_13" d="M191.528 681.5L186.597 753H217.091L221.529 681.5H191.528Z" stroke="black"/>
<path id="R_12" d="M2.54169 758.5L5.55829 796.447L7.55731 815.438L10.488 833.507L37.0085 833.989L29.6071 758.5H2.54169Z" stroke="black"/>
<path id="R_11" d="M32.6091 758L39.5182 834H61.571L63.0515 758H32.6091Z" stroke="black"/>
<path id="R_10" d="M65.5524 757.491L64.072 833.99L91.5768 833.508L94.0446 757.009L65.5524 757.491Z" stroke="black"/>
<path id="R_09" d="M97.0456 757L94.5778 833.5H117.619L126.997 757H97.0456Z" stroke="black"/>
<path id="R_08" d="M129.503 756.491L119.63 833.5H144.118L153.497 756.011L129.503 756.491Z" stroke="black"/>
<path id="R_07" d="M156.002 755.5L146.129 833.5H175.115L184.001 755.5H156.002Z" stroke="black"/>
<path id="R_06" d="M186.505 755.5L177.125 833.5H199.195L211.577 794.374L213.572 784.897L215.565 774.936L217.022 755.5H186.505Z" stroke="black"/>
<path id="R_05" d="M14.0231 844.81L17.5231 853.31L21.0143 861.786L25.4899 870.24L32.9587 881.691L41.9128 891.642L47.8552 896.593L54.3229 900.574L54.3259 900.576L57.613 902.63L61.5309 837.489L10.7985 836.514L14.0231 844.81Z" stroke="black"/>
<path id="R_04" d="M64.029 837.5L59.5817 903.72L74.2722 912.045L82.1931 915.016L90.0729 916.405L91.5515 837.5H64.029Z" stroke="black"/>
<path id="R_03" d="M94.5524 836.489L93.071 917H109.046L124.515 916.516L117.106 836.01L94.5524 836.489Z" stroke="black"/>
<path id="R_02" d="M119.613 836L127.493 916.268L141.849 910.046L155.508 902.729L144.139 836H119.613Z" stroke="black"/>
<path id="R_01" d="M146.156 835.994L157.411 900.097L172.188 888.656L180.622 875.759L186.604 862.297L186.607 862.29L186.611 862.283L193.099 848.808L198.325 835.507L146.156 835.994Z" stroke="black"/>
</g>
</svg>
