
<?xml version="1.0" encoding="UTF-8" standalone="no"?>
<svg width="296" height="918" viewBox="0 0 296 918" fill="none" xmlns="http://www.w3.org/2000/svg">
<g id="Right_foot_sensorss">
<path id="L_56" d="M90.106 307.5L101.371 355.5H68.8901L56.645 307.5H90.106Z" stroke="black"/>
<path id="L_57" d="M131.076 307.5L138.913 355.991L105.403 355.505L94.6265 307.5H131.076Z" stroke="black"/>
<path id="L_58" d="M167.541 307.5L171.459 356H142.927L135.088 307.5H167.541Z" stroke="black"/>
<path id="L_59" d="M205.531 307.5L208.469 356.983L175.968 356.012L172.539 307.5H205.531Z" stroke="black"/>
<path id="L_60" d="M243.552 307.497L248.943 357.492L213.267 357.003L209.347 307.497H243.552Z" stroke="black"/>
<path id="L_61" d="M285.506 307.5L285.995 357.992L251.968 357.506L248.537 307.5H285.506Z" stroke="black"/>
<path id="L_55" d="M51.6166 307.5L64.351 355.5H32.3861L19.6517 307.5H51.6166Z" stroke="black"/>
<path id="L_63" d="M83.0734 256.5L90.4142 302.5H54.9132L46.1046 256.5H83.0734Z" stroke="black"/>
<path id="L_64" d="M122.075 258.477L129.902 303.974L94.4211 302.516L86.1047 256.532L122.075 258.477Z" stroke="black"/>
<path id="L_65" d="M161.573 259.488L168.91 304.491L133.427 304.005L126.09 258.516L161.573 259.488Z" stroke="black"/>
<path id="L_66" d="M204.346 259.5L205.489 304.5H172.425L164.923 259.5H204.346Z" stroke="black"/>
<path id="L_67" d="M243.007 260.5L243.495 304.992L209.499 304.507L209.307 260.5H243.007Z" stroke="black"/>
<path id="L_68" d="M284.511 260.5L285.49 305.49L247.989 305.006L247.011 260.5H284.511Z" stroke="black"/>
<path id="L_62" d="M42.083 256.484L50.8965 302.5H18.3955L7.13867 255.027L42.083 256.484Z" stroke="black"/>
<path id="L_70" d="M75.5646 206.5L81.9269 252.5H45.9269L38.587 206.5H75.5646Z" stroke="black"/>
<path id="L_71" d="M117.544 206.5L121.949 253.977L85.9329 252.518L79.0793 206.5H117.544Z" stroke="black"/>
<path id="L_72" d="M157.033 207.982L160.46 254.984L125.461 254.012L121.544 206.523L157.033 207.982Z" stroke="black"/>
<path id="L_73" d="M196.077 209.483L204.234 255.982L163.966 255.011L160.539 208.023L196.077 209.483Z" stroke="black"/>
<path id="L_74" d="M235.077 209.5L242.909 255.997H207.918L199.598 209.5H235.077Z" stroke="black"/>
<path id="L_75" d="M275.055 209.5L280.509 232.598L284.412 256.5H246.919L238.596 209.5H275.055Z" stroke="black"/>
<path id="L_69" d="M34.0752 206.487L41.9072 252.5H6.93652L0.574219 205.517L34.0752 206.487Z" stroke="black"/>
<path id="L_77" d="M71.1017 156.5L73.5031 167.068L74.0001 178.521V178.522L74.0011 178.532L75.4659 201H38.5001V156.5H71.1017Z" stroke="black"/>
<path id="L_78" d="M110.577 156.988L112.508 168.086L114.504 179.564L117.428 202.409L78.9591 200.522L75.047 156.015L110.577 156.988Z" stroke="black"/>
<path id="L_79" d="M149.573 157L156.911 203.483L120.812 202.45L114.452 157H149.573Z" stroke="black"/>
<path id="L_80" d="M186.593 159.98L191.509 182.593V182.594L195.896 205.5H160.433L153.582 158.526L186.593 159.98Z" stroke="black"/>
<path id="L_81" d="M222.137 159.997L229.515 182.624L234.873 206H197.921L189.899 159.997H222.137Z" stroke="black"/>
<path id="L_82" d="M261.149 159.5L269.521 182.648L275.36 206H237.886L225.8 159.5H261.149Z" stroke="black"/>
<path id="L_76" d="M35 156.492V201.992L0.510742 201.507L1.48926 156.007L35 156.492Z" stroke="black"/>
<path id="L_84" d="M72.0001 105V152.5H38.5001V105H72.0001Z" stroke="black"/>
<path id="L_85" d="M106.539 106.492L110.455 153.485L75.0001 152.513V106.008L106.539 106.492Z" stroke="black"/>
<path id="L_86" d="M123.725 107.249L138.101 107.98L149.361 154.49L114.329 154.006L109.555 106.528L123.725 107.249Z" stroke="black"/>
<path id="L_87" d="M172.622 108.983L186.328 155.489L153.396 155.005L142.139 108.021L172.622 108.983Z" stroke="black"/>
<path id="L_88" d="M207.629 108.995L221.827 156H189.677L175.671 108.995H207.629Z" stroke="black"/>
<path id="L_89" d="M237.688 109.5L249.051 132.72L259.235 156H224.382L211.655 109.5H237.688Z" stroke="black"/>
<path id="L_83" d="M35.9893 105L35.0098 152.5H1.56641L2.99316 141.082L4.99316 129.082L6.98926 117.101L9.89453 105H35.9893Z" stroke="black"/>
<path id="L_48" d="M68.1228 358L84.3406 416H58.3337L34.2488 358H68.1228Z" stroke="black"/>
<path id="L_50" d="M139.106 359L152.862 416.98L119.406 416.011L107.12 359H139.106Z" stroke="black"/>
<path id="L_52" d="M209.072 360L218.414 419H187.417L176.6 360H209.072Z" stroke="black"/>
<path id="L_53" d="M249.037 360.993L253.46 419H222.43L213.582 360.508L249.037 360.993Z" stroke="black"/>
<path id="L_54" d="M287.011 361L287.991 418.508L256.963 418.992L252.54 361H287.011Z" stroke="black"/>
<path id="L_47" d="M288.513 421.5L289.987 480H258.492L257.509 421.5H288.513Z" stroke="black"/>
<path id="L_90" d="M52.8839 57L43.5948 101H11.5939L13.4865 90.1191L16.9806 78.1396L16.9796 78.1386L20.4786 66.6455L23.8546 57H52.8839Z" stroke="black"/>
<path id="L_91" d="M81.5167 57.7031L83.1046 101.985L47.5997 101.016L55.9122 57.0107L81.5167 57.7031Z" stroke="black"/>
<path id="L_92" d="M113.419 57.9948L117.451 102.983L85.9803 102.014L84.1454 57.7204L113.419 57.9948Z" stroke="black"/>
<path id="L_93" d="M148.573 58.0001L155.91 103.984L120.455 103.012L116.052 58.0001H148.573Z" stroke="black"/>
<path id="L_94" d="M179.623 59.5L192.337 104H159.92L152.096 59.5H179.623Z" stroke="black"/>
<path id="L_95" d="M202.74 59.5L218.091 81.2881L234.544 105H196.368L182.18 59.5H202.74Z" stroke="black"/>
<path id="L_99" d="M157.767 16.9424L168.714 23.4111L176.663 29.8701L183.147 36.3535L189.607 43.3105L199.026 56.7012L151.888 56.0049L139.265 7.4541L157.767 16.9424Z" stroke="black"/>
<path id="L_98" d="M113.841 1L121.407 1.99219L129.326 3.97168L135.068 6.84277L146.864 55.5H116.414L106.104 1H113.841Z" stroke="black"/>
<path id="L_97" d="M95.4786 0.5L102.085 0.97168L113.264 55.5H84.0421L74.5773 2.8877L81.0861 1.49219L85.0626 0.996094L85.0704 0.995117L88.5363 0.5H95.4786Z" stroke="black"/>
<path id="L_96" d="M81.8956 55.5H25.8546L34.4103 40.2881L45.382 27.3232L45.381 27.3223L50.3702 21.8359L50.3693 21.835L55.8351 15.875L72.1534 4.35547L81.8956 55.5Z" stroke="black"/>
<path id="L_51" d="M172.59 360L184.388 418.5H156.896L143.132 360H172.59Z" stroke="black"/>
<path id="L_49" d="M103.101 359L115.877 416H87.3767L71.1609 359H103.101Z" stroke="black"/>
<path id="L_40" d="M290.012 482L291.488 546H258.996L258.504 482H290.012Z" stroke="black"/>
<path id="L_46" d="M253.513 421.5L254.987 480H224.483L222.517 421.5H253.513Z" stroke="black"/>
<path id="L_39" d="M255.508 482L256.492 546H226.5V482H255.508Z" stroke="black"/>
<path id="L_45" d="M219.512 421.5L220.987 480H190.483L188.517 421.5H219.512Z" stroke="black"/>
<path id="L_38" d="M222.508 482L223.492 546H194V482H222.508Z" stroke="black"/>
<path id="L_44" d="M184.525 421.5L187.472 478.481L158.487 477.516L157.013 421.5H184.525Z" stroke="black"/>
<path id="L_43" d="M153.012 421.478L154.485 477.475L123.974 476.022L121.027 420.023L153.012 421.478Z" stroke="black"/>
<path id="L_42" d="M118.52 419.991L120.977 476H92.9706L89.5311 419.509L118.52 419.991Z" stroke="black"/>
<path id="L_41" d="M86.5292 419L89.9686 476H61.4706L58.0311 419H86.5292Z" stroke="black"/>
<path id="L_37" d="M188.515 480.992L190.484 545H161.971L158.031 480.508L188.515 480.992Z" stroke="black"/>
<path id="L_36" d="M154.531 480.485L158.963 544.99L130.954 544.507L124.554 479.518L154.531 480.485Z" stroke="black"/>
<path id="L_35" d="M122.042 479.492L127.951 544.49L97.4637 544.007L92.5399 479.009L122.042 479.492Z" stroke="black"/>
<path id="L_34" d="M88.5389 479.491L93.955 543.99L63.9813 543.507L61.5194 479.009L88.5389 479.491Z" stroke="black"/>
<path id="L_33" d="M291.512 549.5L292.988 613.5H260.496L260.004 549.5H291.512Z" stroke="black"/>
<path id="L_32" d="M256.508 549.5L257.492 613.5H227.5V549.5H256.508Z" stroke="black"/>
<path id="L_31" d="M224.008 548.5L224.992 612.5H195.5V548.5H224.008Z" stroke="black"/>
<path id="L_30" d="M191.504 548L191.996 611.5H165.981L163.52 548H191.504Z" stroke="black"/>
<path id="L_29" d="M159.029 547L162.968 611.49L135.467 611.008L131.036 547H159.029Z" stroke="black"/>
<path id="L_28" d="M128.033 547L132.463 610.991L101.967 610.507L97.536 547H128.033Z" stroke="black"/>
<path id="L_27" d="M67.9999 594.484L66.9989 578.469L66.9979 578.455L65.4979 561.955L65.4969 561.939L65.494 561.925L63.0819 546.009L93.536 546.492L98.4608 610.5H67.9999V594.484Z" stroke="black"/>
<path id="L_26" d="M293.011 616L294.488 683H262.989L261.512 616H293.011Z" stroke="black"/>
<path id="L_25" d="M259.011 616L260.488 683H233.961L228.542 616H259.011Z" stroke="black"/>
<path id="L_24" d="M225.538 615.992L230.956 681.99L200.957 681.507L195.047 615.509L225.538 615.992Z" stroke="black"/>
<path id="L_23" d="M192.539 614.5L197.958 681.5H167.985L166.016 614.5H192.539Z" stroke="black"/>
<path id="L_22" d="M163.01 614.483L164.488 680H136.493L135.507 613.518L163.01 614.483Z" stroke="black"/>
<path id="L_21" d="M132.011 613.5L133.488 680H105.968L101.534 613.5H132.011Z" stroke="black"/>
<path id="L_20" d="M97.5428 612.5L103.452 678.99L73.4608 678.507L68.0419 612.5H97.5428Z" stroke="black"/>
<path id="L_19" d="M294.546 685L292.575 755H264.49L263.072 685H294.546Z" stroke="black"/>
<path id="L_18" d="M260.507 685L261.493 755H232.015L233.986 685H260.507Z" stroke="black"/>
<path id="L_17" d="M231.087 684L229.511 754.5H200.993L200.007 684H231.087Z" stroke="black"/>
<path id="L_16" d="M197.996 754.5H168V683.735L197.503 683.504L197.996 754.5Z" stroke="black"/>
<path id="L_15" d="M165.004 682.5L165.496 753.989L140.967 753.509L136.036 682.5H165.004Z" stroke="black"/>
<path id="L_14" d="M133.533 682L138.463 753.49L111.464 753.008L106.04 682H133.533Z" stroke="black"/>
<path id="L_13" d="M103.533 681.5L108.464 753H77.9696L73.5321 681.5H103.533Z" stroke="black"/>
<path id="L_12" d="M292.519 758.5L289.503 796.447L287.504 815.438L284.573 833.507L258.053 833.989L265.454 758.5H292.519Z" stroke="black"/>
<path id="L_11" d="M262.452 758L255.543 834H233.49L232.01 758H262.452Z" stroke="black"/>
<path id="L_10" d="M229.509 757.491L230.989 833.99L203.484 833.508L201.016 757.009L229.509 757.491Z" stroke="black"/>
<path id="L_09" d="M198.016 757L200.483 833.5H177.442L168.064 757H198.016Z" stroke="black"/>
<path id="L_08" d="M165.558 756.491L175.432 833.5H150.943L141.564 756.011L165.558 756.491Z" stroke="black"/>
<path id="L_07" d="M139.059 755.5L148.932 833.5H119.946L111.06 755.5H139.059Z" stroke="black"/>
<path id="L_06" d="M108.557 755.5L117.936 833.5H95.8661L83.4843 794.374L81.4891 784.897L79.496 774.936L78.0389 755.5H108.557Z" stroke="black"/>
<path id="L_05" d="M281.038 844.81L277.538 853.31L274.047 861.786L269.571 870.24L262.102 881.691L253.148 891.642L247.206 896.593L240.738 900.574L240.735 900.576L237.448 902.63L233.53 837.489L284.263 836.514L281.038 844.81Z" stroke="black"/>
<path id="L_04" d="M231.032 837.5L235.479 903.72L220.789 912.045L212.868 915.016L204.988 916.405L203.51 837.5H231.032Z" stroke="black"/>
<path id="L_03" d="M200.509 836.489L201.99 917H186.016L170.546 916.516L177.955 836.01L200.509 836.489Z" stroke="black"/>
<path id="L_02" d="M175.448 836L167.568 916.268L153.212 910.046L139.553 902.729L150.922 836H175.448Z" stroke="black"/>
<path id="L_01" d="M148.905 835.994L137.65 900.097L122.873 888.656L114.439 875.759L108.457 862.297L108.454 862.29L108.45 862.283L101.962 848.808L96.7362 835.507L148.905 835.994Z" stroke="black"/>
</g>
</svg>
